<svg width="32" height="32" viewBox="0 0 32 32" fill="none" xmlns="http://www.w3.org/2000/svg">
<path d="M5.66329 13.8489C7.91609 18.88 11.5456 22.9867 15.973 25.5644L19.4148 21.6533C19.8372 21.1733 20.4629 21.0133 21.0105 21.2267C22.7627 21.8844 24.6556 22.24 26.5956 22.24C27.456 22.24 28.16 23.04 28.16 24.0178V30.2222C28.16 31.2 27.456 32 26.5956 32C11.9054 32 0 18.4711 0 1.77778C0 0.8 0.704 0 1.56444 0H7.04C7.90044 0 8.60444 0.8 8.60444 1.77778C8.60444 4 8.91733 6.13333 9.49618 8.12444C9.66827 8.74667 9.54311 9.44 9.10507 9.93778L5.66329 13.8489Z" fill="#626262"/>
</svg>
