<svg width="48" height="38" viewBox="0 0 48 38" fill="none" xmlns="http://www.w3.org/2000/svg">
<path d="M19.0449 25.9968L32.0085 18.4571L19.0449 10.827V25.9968ZM24 0C26.9998 0 29.897 0.0452381 32.6915 0.135714C35.486 0.22619 37.535 0.321693 38.8385 0.422222L40.7937 0.542857C40.8116 0.542857 40.9633 0.557936 41.249 0.588095C41.5347 0.618254 41.7401 0.648413 41.8651 0.678571C41.9901 0.70873 42.1999 0.753968 42.4945 0.814286C42.7891 0.874603 43.0436 0.955026 43.2579 1.05556C43.4721 1.15608 43.7221 1.28677 44.0078 1.44762C44.2935 1.60847 44.5703 1.8045 44.8381 2.03571C45.106 2.26693 45.3649 2.53333 45.6149 2.83492C45.722 2.95556 45.8604 3.14153 46.03 3.39286C46.1997 3.64418 46.4586 4.23227 46.8068 5.15714C47.155 6.08201 47.3915 7.09735 47.5165 8.20317C47.6594 9.48995 47.771 10.8622 47.8513 12.3198C47.9317 13.7775 47.9808 14.9185 47.9987 15.7429V21.0508C48.0165 23.9661 47.8558 26.8815 47.5165 29.7968C47.3915 30.9026 47.1684 31.9029 46.8469 32.7976C46.5255 33.6923 46.2398 34.3106 45.9898 34.6524L45.6149 35.1651C45.3649 35.4667 45.106 35.7331 44.8381 35.9643C44.5703 36.1955 44.2935 36.3865 44.0078 36.5373C43.7221 36.6881 43.4721 36.8138 43.2579 36.9143C43.0436 37.0148 42.7891 37.0952 42.4945 37.1556C42.1999 37.2159 41.9856 37.2611 41.8517 37.2913C41.7178 37.3214 41.5124 37.3516 41.2356 37.3817C40.9589 37.4119 40.8116 37.427 40.7937 37.427C36.3118 37.809 30.7139 38 24 38C20.3038 37.9598 17.0941 37.8944 14.3711 37.804C11.648 37.7135 9.85793 37.6381 9.00084 37.5778L7.68841 37.4571L6.72418 37.3365C6.08136 37.236 5.59478 37.1354 5.26444 37.0349C4.9341 36.9344 4.47877 36.7233 3.89844 36.4016C3.31812 36.0799 2.81368 35.6677 2.38513 35.1651C2.278 35.0444 2.13961 34.8585 1.96998 34.6071C1.80035 34.3558 1.54143 33.7677 1.19324 32.8429C0.845042 31.918 0.608448 30.9026 0.483455 29.7968C0.340606 28.5101 0.229005 27.1378 0.148652 25.6802C0.0682998 24.2225 0.0191954 23.0815 0.00133921 22.2571V16.9492C-0.0165169 14.0339 0.144188 11.1185 0.483455 8.20317C0.608448 7.09735 0.83165 6.09709 1.15306 5.20238C1.47447 4.30767 1.76017 3.68942 2.01016 3.34762L2.38513 2.83492C2.63512 2.53333 2.89403 2.26693 3.16188 2.03571C3.42972 1.8045 3.70649 1.60847 3.99219 1.44762C4.27789 1.28677 4.52787 1.15608 4.74215 1.05556C4.95642 0.955026 5.21087 0.874603 5.5055 0.814286C5.80012 0.753968 6.00993 0.70873 6.13493 0.678571C6.25992 0.648413 6.46526 0.618254 6.75096 0.588095C7.03666 0.557936 7.18844 0.542857 7.20629 0.542857C11.6882 0.180952 17.2861 0 24 0Z" fill="#626262"/>
</svg>
