<svg width="48" height="44" viewBox="0 0 48 44" fill="none" xmlns="http://www.w3.org/2000/svg">
<path d="M33.1998 10.67C31.833 9.23913 31.0796 7.4019 31.0798 5.5H24.8998V28.2333C24.8532 29.4639 24.2869 30.6296 23.3204 31.4847C22.354 32.3399 21.063 32.8174 19.7198 32.8167C16.8798 32.8167 14.5198 30.69 14.5198 28.05C14.5198 24.8967 17.8398 22.5317 21.2598 23.5033V17.71C14.3598 16.8667 8.31982 21.78 8.31982 28.05C8.31982 34.155 13.8398 38.5 19.6998 38.5C25.9798 38.5 31.0798 33.825 31.0798 28.05V16.5183C33.5858 18.1681 36.5946 19.0532 39.6798 19.0483V13.3833C39.6798 13.3833 35.9198 13.5483 33.1998 10.67Z" fill="#626262"/>
</svg>
