<svg width="34" height="34" viewBox="0 0 34 34" fill="none" xmlns="http://www.w3.org/2000/svg">
<g clip-path="url(#clip0_111_2083)">
<path fill-rule="evenodd" clip-rule="evenodd" d="M7.14344 0.679688C5.24936 0.679687 3.43281 1.44697 2.09324 2.81281C0.753659 4.17865 0.000727375 6.03124 0 7.9632V27.3934C0 29.3258 0.752611 31.1791 2.09227 32.5456C3.43192 33.912 5.24889 34.6797 7.14344 34.6797H26.1926C28.0867 34.6789 29.903 33.911 31.242 32.5446C32.5811 31.1782 33.3333 29.3253 33.3333 27.3934V7.9632C33.3326 6.03172 32.58 4.17956 31.2411 2.8138C29.9021 1.44804 28.0862 0.680429 26.1926 0.679688H7.14344ZM28.2473 7.9744C28.2473 8.53098 28.0306 9.06476 27.6447 9.45833C27.2589 9.85189 26.7356 10.073 26.1899 10.073C25.6442 10.073 25.1209 9.85189 24.7351 9.45833C24.3492 9.06476 24.1324 8.53098 24.1324 7.9744C24.1324 7.41781 24.3492 6.88403 24.7351 6.49047C25.1209 6.0969 25.6442 5.8758 26.1899 5.8758C26.7356 5.8758 27.2589 6.0969 27.6447 6.49047C28.0306 6.88403 28.2473 7.41781 28.2473 7.9744ZM16.6708 11.8582C15.1575 11.8582 13.7061 12.4714 12.636 13.5629C11.566 14.6543 10.9648 16.1347 10.9648 17.6783C10.9648 19.2219 11.566 20.7022 12.636 21.7937C13.7061 22.8852 15.1575 23.4984 16.6708 23.4984C18.1841 23.4984 19.6354 22.8852 20.7055 21.7937C21.7756 20.7022 22.3768 19.2219 22.3768 17.6783C22.3768 16.1347 21.7756 14.6543 20.7055 13.5629C19.6354 12.4714 18.1841 11.8582 16.6708 11.8582ZM8.2188 17.6783C8.2188 15.3926 9.10899 13.2005 10.6935 11.5843C12.2781 9.96806 14.4272 9.06007 16.668 9.06007C18.9089 9.06007 21.058 9.96806 22.6425 11.5843C24.2271 13.2005 25.1173 15.3926 25.1173 17.6783C25.1173 19.964 24.2271 22.1561 22.6425 23.7723C21.058 25.3885 18.9089 26.2965 16.668 26.2965C14.4272 26.2965 12.2781 25.3885 10.6935 23.7723C9.10899 22.1561 8.2188 19.964 8.2188 17.6783Z" fill="#626262"/>
</g>
<defs>
<clipPath id="clip0_111_2083">
<rect width="34" height="34" fill="white"/>
</clipPath>
</defs>
</svg>
